# xmcd
#
# Track frame offsets: 
#        150
#        18325
#        38385
#        58675
#        76885
#        93517
#        111295
#        130520
#        148535
#        165015
#        185495
#
# Disc length: 2711 seconds
#
# Revision: 11
# Processed by: cddbd v1.5.2PL0 Copyright (c) Steve Scherf et al.
# Submitted via: ExactAudioCopy v0.95b4
#
DISCID=7b0a950b
DTITLE=Pink Cream 69 - One Size Fits All
DYEAR=1991
DGENRE=Melodic Power Metal, 
TTITLE0=Livin' My Life For You
TTITLE1=Talk To The Moon
TTITLE2=Hell's Gone Crazy
TTITLE3=Do You Like It Like That
TTITLE4=Ballerina
TTITLE5=Signs Of Danger
TTITLE6=Walkin' Out To Heaven
TTITLE7=Stray Kid
TTITLE8=Piggy Back Bitch
TTITLE9=Where The Eagle Learns To Fly
TTITLE10=We Taught The Children
EXTD=YEAR: 1991
EXTT0=
EXTT1=
EXTT2=
EXTT3=
EXTT4=
EXTT5=
EXTT6=
EXTT7=
EXTT8=
EXTT9=
EXTT10=
PLAYORDER=
